<svg viewBox="0 -0.5 25 25" fill="none" xmlns="http://www.w3.org/2000/svg"><g id="SVGRepo_bgCarrier" stroke-width="0"></g><g id="SVGRepo_tracerCarrier" stroke-linecap="round" stroke-linejoin="round"></g><g id="SVGRepo_iconCarrier"> <path fill-rule="evenodd" clip-rule="evenodd" d="M9.918 10.0005H7.082C6.66587 9.99708 6.26541 10.1591 5.96873 10.4509C5.67204 10.7427 5.50343 11.1404 5.5 11.5565V17.4455C5.5077 18.3117 6.21584 19.0078 7.082 19.0005H9.918C10.3341 19.004 10.7346 18.842 11.0313 18.5502C11.328 18.2584 11.4966 17.8607 11.5 17.4445V11.5565C11.4966 11.1404 11.328 10.7427 11.0313 10.4509C10.7346 10.1591 10.3341 9.99708 9.918 10.0005Z" stroke="#ebebeb" stroke-width="1.5" stroke-linecap="round" stroke-linejoin="round"></path> <path fill-rule="evenodd" clip-rule="evenodd" d="M9.918 4.0006H7.082C6.23326 3.97706 5.52559 4.64492 5.5 5.4936V6.5076C5.52559 7.35629 6.23326 8.02415 7.082 8.0006H9.918C10.7667 8.02415 11.4744 7.35629 11.5 6.5076V5.4936C11.4744 4.64492 10.7667 3.97706 9.918 4.0006Z" stroke="#ebebeb" stroke-width="1.5" stroke-linecap="round" stroke-linejoin="round"></path> <path fill-rule="evenodd" clip-rule="evenodd" d="M15.082 13.0007H17.917C18.3333 13.0044 18.734 12.8425 19.0309 12.5507C19.3278 12.2588 19.4966 11.861 19.5 11.4447V5.55666C19.4966 5.14054 19.328 4.74282 19.0313 4.45101C18.7346 4.1592 18.3341 3.9972 17.918 4.00066H15.082C14.6659 3.9972 14.2654 4.1592 13.9687 4.45101C13.672 4.74282 13.5034 5.14054 13.5 5.55666V11.4447C13.5034 11.8608 13.672 12.2585 13.9687 12.5503C14.2654 12.8421 14.6659 13.0041 15.082 13.0007Z" stroke="#ebebeb" stroke-width="1.5" stroke-linecap="round" stroke-linejoin="round"></path> <path fill-rule="evenodd" clip-rule="evenodd" d="M15.082 19.0006H17.917C18.7661 19.0247 19.4744 18.3567 19.5 17.5076V16.4936C19.4744 15.6449 18.7667 14.9771 17.918 15.0006H15.082C14.2333 14.9771 13.5256 15.6449 13.5 16.4936V17.5066C13.525 18.3557 14.2329 19.0241 15.082 19.0006Z" stroke="#ebebeb" stroke-width="1.5" stroke-linecap="round" stroke-linejoin="round"></path> </g></svg>

<svg viewBox="0 0 24 24" fill="none" xmlns="http://www.w3.org/2000/svg"><g id="SVGRepo_bgCarrier" stroke-width="0"></g><g id="SVGRepo_tracerCarrier" stroke-linecap="round" stroke-linejoin="round"></g><g id="SVGRepo_iconCarrier"> <path d="M12 17L19 20L12 3L5 20L8.5 18.5" stroke="#ebebeb" stroke-width="1.5" stroke-linecap="round" stroke-linejoin="round"></path> </g></svg>

<svg viewBox="0 0 24 24" fill="none" xmlns="http://www.w3.org/2000/svg"><g id="SVGRepo_bgCarrier" stroke-width="0"></g><g id="SVGRepo_tracerCarrier" stroke-linecap="round" stroke-linejoin="round"></g><g id="SVGRepo_iconCarrier"> <path d="M9 19C9 20.6569 7.65685 22 6 22C4.34315 22 3 20.6569 3 19C3 17.3431 4.34315 16 6 16C7.65685 16 9 17.3431 9 19Z" stroke="#ebebeb" stroke-width="1.5"></path> <path d="M21 17C21 18.6569 19.6569 20 18 20C16.3431 20 15 18.6569 15 17C15 15.3431 16.3431 14 18 14C19.6569 14 21 15.3431 21 17Z" stroke="#ebebeb" stroke-width="1.5"></path> <path d="M9 19V8" stroke="#ebebeb" stroke-width="1.5"></path> <path d="M20.25 11.5C20.25 11.9142 20.5858 12.25 21 12.25C21.4142 12.25 21.75 11.9142 21.75 11.5H20.25ZM21.75 11.5V6H20.25V11.5H21.75Z" fill="#ebebeb"></path> <path d="M15.7351 3.75466L11.7351 5.08799C10.4151 5.52801 9.75503 5.74801 9.37752 6.27179C9 6.79556 9 7.49128 9 8.88273V11.9997L21 7.99969V7.54939C21 5.01693 21 3.7507 20.1694 3.15206C19.3388 2.55341 18.1376 2.95383 15.7351 3.75466Z" stroke="#ebebeb" stroke-width="1.5" stroke-linecap="round"></path> </g></svg>

<svg fill="#ebebeb" viewBox="0 0 16 16" xmlns="http://www.w3.org/2000/svg"><g id="SVGRepo_bgCarrier" stroke-width="0"></g><g id="SVGRepo_tracerCarrier" stroke-linecap="round" stroke-linejoin="round"></g><g id="SVGRepo_iconCarrier"><path d="M8 .5C3.58.5 0 3.86 0 8s3.58 7.5 8 7.5c4.69 0 1.04-2.83 2.79-4.55.76-.75 1.63-.87 2.44-.87.37 0 .73.03 1.06.03.99 0 1.72-.23 1.72-2.1C16 3.86 12.42.5 8 .5zm6.65 8.32c-.05.01-.16.02-.37.02-.14 0-.29 0-.45-.01-.19 0-.39-.01-.61-.01-.89 0-2.19.13-3.32 1.23-1.17 1.16-.9 2.6-.74 3.47.03.18.08.44.09.6-.16.05-.52.13-1.26.13-3.72 0-6.75-2.8-6.75-6.25S4.28 1.75 8 1.75s6.75 2.8 6.75 6.25c0 .5-.06.74-.1.82z"></path><path d="M5.9 9.47c-1.03 0-1.86.8-1.86 1.79s.84 1.79 1.86 1.79 1.86-.8 1.86-1.79-.84-1.79-1.86-1.79zm0 2.35c-.35 0-.64-.25-.64-.56s.29-.56.64-.56.64.25.64.56-.29.56-.64.56zm-.2-4.59c0-.99-.84-1.79-1.86-1.79s-1.86.8-1.86 1.79.84 1.79 1.86 1.79 1.86-.8 1.86-1.79zm-1.86.56c-.35 0-.64-.25-.64-.56s.29-.56.64-.56.64.25.64.56-.29.56-.64.56zM7.37 2.5c-1.03 0-1.86.8-1.86 1.79s.84 1.79 1.86 1.79 1.86-.8 1.86-1.79S8.39 2.5 7.37 2.5zm0 2.35c-.35 0-.64-.25-.64-.56s.29-.56.64-.56.64.25.64.56-.29.56-.64.56zm2.47 1.31c0 .99.84 1.79 1.86 1.79s1.86-.8 1.86-1.79-.84-1.79-1.86-1.79-1.86.8-1.86 1.79zm2.5 0c0 .31-.29.56-.64.56s-.64-.25-.64-.56.29-.56.64-.56.64.25.64.56z"></path></g></svg>

