<!DOCTYPE svg PUBLIC "-//W3C//DTD SVG 1.1//EN" "http://www.w3.org/Graphics/SVG/1.1/DTD/svg11.dtd">
<!-- Uploaded to: SVG Repo, www.svgrepo.com, Transformed by: SVG Repo Mixer Tools -->
<svg width="800px" height="800px" viewBox="0 0 24.00 24.00" fill="none" xmlns="http://www.w3.org/2000/svg" transform="rotate(90)">
<g id="SVGRepo_bgCarrier" stroke-width="0"/>
<g id="SVGRepo_tracerCarrier" stroke-linecap="round" stroke-linejoin="round"/>
<g id="SVGRepo_iconCarrier"> <path d="M7.5 5H16.5C17.12 5 17.67 5.02 18.16 5.09C20.79 5.38 21.5 6.62 21.5 10V14C21.5 17.38 20.79 18.62 18.16 18.91C17.67 18.98 17.12 19 16.5 19H7.5C6.88 19 6.33 18.98 5.84 18.91C3.21 18.62 2.5 17.38 2.5 14V10C2.5 6.62 3.21 5.38 5.84 5.09C6.33 5.02 6.88 5 7.5 5Z" stroke="#9ca5b0" stroke-width="2.232" stroke-linecap="round" stroke-linejoin="round"/> <path opacity="0.4" d="M4.5 2H19.5" stroke="#9ca5b0" stroke-width="2.232" stroke-linecap="round" stroke-linejoin="round"/> <path opacity="0.4" d="M5 22H20" stroke="#9ca5b0" stroke-width="2.232" stroke-linecap="round" stroke-linejoin="round"/> </g>
</svg>