<!DOCTYPE svg PUBLIC "-//W3C//DTD SVG 1.1//EN" "http://www.w3.org/Graphics/SVG/1.1/DTD/svg11.dtd">
<!-- Uploaded to: SVG Repo, www.svgrepo.com, Transformed by: SVG Repo Mixer Tools -->
<svg width="800px" height="800px" viewBox="0 0 32 32" id="svg5" version="1.1" xmlns="http://www.w3.org/2000/svg" xmlns:svg="http://www.w3.org/2000/svg" fill="#000000">
<g id="SVGRepo_bgCarrier" stroke-width="0"/>
<g id="SVGRepo_tracerCarrier" stroke-linecap="round" stroke-linejoin="round"/>
<g id="SVGRepo_iconCarrier"> <defs id="defs2"/> <g id="layer1" transform="translate(-204,-148)"> <path d="m 220,157.00586 c -3.85414,0 -7,3.14586 -7,7 0,3.85414 3.14586,7 7,7 3.85414,0 7,-3.14586 7,-7 0,-3.85414 -3.14586,-7 -7,-7 z m 0,2 c 2.77326,0 5,2.22673 5,5 0,2.77326 -2.22674,5 -5,5 -2.77326,0 -5,-2.22674 -5,-5 0,-2.77327 2.22674,-5 5,-5 z" id="path12116" style="color:#ebebeb;fill:#ebebeb;fill-rule:evenodd;stroke-linecap:round;stroke-linejoin:round;stroke-miterlimit:4.1;-inkscape-stroke:none"/> <path d="m 220,150.00586 a 1,1 0 0 0 -1,1 v 3 a 1,1 0 0 0 1,1 1,1 0 0 0 1,-1 v -3 a 1,1 0 0 0 -1,-1 z" id="path12120" style="color:#ebebeb;fill:#ebebeb;fill-rule:evenodd;stroke-linecap:round;stroke-linejoin:round;stroke-miterlimit:4.1;-inkscape-stroke:none"/> <path d="m 220,173.00586 a 1,1 0 0 0 -1,1 v 3 a 1,1 0 0 0 1,1 1,1 0 0 0 1,-1 v -3 a 1,1 0 0 0 -1,-1 z" id="path12122" style="color:#ebebeb;fill:#ebebeb;fill-rule:evenodd;stroke-linecap:round;stroke-linejoin:round;stroke-miterlimit:4.1;-inkscape-stroke:none"/> <path d="m 230,163.00586 a 1,1 0 0 0 -1,1 1,1 0 0 0 1,1 h 3 a 1,1 0 0 0 1,-1 1,1 0 0 0 -1,-1 z" id="path12124" style="color:#ebebeb;fill:#ebebeb;fill-rule:evenodd;stroke-linecap:round;stroke-linejoin:round;stroke-miterlimit:4.1;-inkscape-stroke:none"/> <path d="m 207,163.00586 a 1,1 0 0 0 -1,1 1,1 0 0 0 1,1 h 3 a 1,1 0 0 0 1,-1 1,1 0 0 0 -1,-1 z" id="path12126" style="color:#ebebeb;fill:#ebebeb;fill-rule:evenodd;stroke-linecap:round;stroke-linejoin:round;stroke-miterlimit:4.1;-inkscape-stroke:none"/> <path d="m 229.19336,153.81445 a 1,1 0 0 0 -0.70899,0.29297 l -2.12109,2.1211 a 1,1 0 0 0 0,1.41406 1,1 0 0 0 1.41406,0 l 2.12305,-2.1211 a 1,1 0 0 0 0,-1.41406 1,1 0 0 0 -0.70703,-0.29297 z" id="path12128" style="color:#ebebeb;fill:#ebebeb;fill-rule:evenodd;stroke-linecap:round;stroke-linejoin:round;stroke-miterlimit:4.1;-inkscape-stroke:none"/> <path d="m 212.92969,170.07812 a 1,1 0 0 0 -0.70703,0.29297 l -2.12305,2.1211 a 1,1 0 0 0 0,1.41406 1,1 0 0 0 1.41601,0 l 2.1211,-2.12109 a 1,1 0 0 0 0,-1.41407 1,1 0 0 0 -0.70703,-0.29297 z" id="path12130" style="color:#ebebeb;fill:#ebebeb;fill-rule:evenodd;stroke-linecap:round;stroke-linejoin:round;stroke-miterlimit:4.1;-inkscape-stroke:none"/> <path d="m 227.07031,170.07812 a 1,1 0 0 0 -0.70703,0.29297 1,1 0 0 0 0,1.41407 l 2.12109,2.12109 a 1,1 0 0 0 1.41602,0 1,1 0 0 0 0,-1.41406 l -2.12305,-2.1211 a 1,1 0 0 0 -0.70703,-0.29297 z" id="path12132" style="color:#ebebeb;fill:#ebebeb;fill-rule:evenodd;stroke-linecap:round;stroke-linejoin:round;stroke-miterlimit:4.1;-inkscape-stroke:none"/> <path d="m 210.80664,153.81445 a 1,1 0 0 0 -0.70703,0.29297 1,1 0 0 0 0,1.41406 l 2.12305,2.1211 a 1,1 0 0 0 1.41406,0 1,1 0 0 0 0,-1.41406 l -2.1211,-2.1211 a 1,1 0 0 0 -0.70898,-0.29297 z" id="path12134" style="color:#ebebeb;fill:#ebebeb;fill-rule:evenodd;stroke-linecap:round;stroke-linejoin:round;stroke-miterlimit:4.1;-inkscape-stroke:none"/> <path d="m 217.5,163.00586 a 1,1 0 0 0 -1,1 c 0,1.92115 1.57885,3.5 3.5,3.5 a 1,1 0 0 0 1,-1 1,1 0 0 0 -1,-1 c -0.84027,0 -1.5,-0.65973 -1.5,-1.5 a 1,1 0 0 0 -1,-1 z" id="circle13627" style="color:#ebebeb;fill:#ebebeb;fill-rule:evenodd;stroke-linecap:round;stroke-linejoin:round;stroke-miterlimit:4.1;-inkscape-stroke:none"/> </g> </g>
</svg>